<svg width="20" height="21" viewBox="0 0 20 21" fill="none" xmlns="http://www.w3.org/2000/svg"><path d="M14.0419 0H5.95811C2.67279 0 0 2.80643 0 6.25601V14.744C0 18.1936 2.67279 21 5.95811 21H14.0419C17.3272 21 20 18.1936 20 14.744V6.25601C20 2.80643 17.3272 0 14.0419 0ZM17.988 14.744C17.988 17.0323 16.2213 18.8874 14.0419 18.8874H5.95811C3.77875 18.8874 2.012 17.0323 2.012 14.744V6.25601C2.012 3.96765 3.77875 2.1126 5.95811 2.1126H14.0419C16.2213 2.1126 17.988 3.96765 17.988 6.25601V14.744Z" fill="#8083E6"></path><path d="M9.99986 5.0686C7.14762 5.0686 4.82715 7.5051 4.82715 10.4999C4.82715 13.4947 7.14762 15.9313 9.99986 15.9313C12.8521 15.9313 15.1726 13.4948 15.1726 10.4999C15.1726 7.50506 12.8521 5.0686 9.99986 5.0686ZM9.99986 13.8187C8.25423 13.8187 6.83915 12.3329 6.83915 10.5C6.83915 8.66704 8.25427 7.1812 9.99986 7.1812C11.7455 7.1812 13.1606 8.66704 13.1606 10.5C13.1606 12.3328 11.7455 13.8187 9.99986 13.8187Z" fill="#8083E6"></path><path d="M15.1828 6.41091C15.8674 6.41091 16.4223 5.82822 16.4223 5.10945C16.4223 4.39067 15.8674 3.80798 15.1828 3.80798C14.4983 3.80798 13.9434 4.39067 13.9434 5.10945C13.9434 5.82822 14.4983 6.41091 15.1828 6.41091Z" fill="#8083E6"></path></svg>