<?xml version="1.0" encoding="UTF-8" standalone="no"?>
<!-- Creator: CorelDRAW -->
<svg xmlns:rdf="http://www.w3.org/1999/02/22-rdf-syntax-ns#" xmlns="http://www.w3.org/2000/svg" fill-rule="evenodd" xml:space="preserve" height="34.24" width="122.4" version="1.1" xmlns:cc="http://creativecommons.org/ns#" xmlns:dc="http://purl.org/dc/elements/1.1/" viewBox="0 0 34.550761 9.6627725"><metadata><rdf:RDF><cc:Work rdf:about=""><dc:format>image/svg+xml</dc:format><dc:type rdf:resource="http://purl.org/dc/dcmitype/StillImage"/><dc:title/></cc:Work></rdf:RDF></metadata>
 <defs><style type="text/css">
    .fil4 {fill:white}
    .fil0 {fill:#010101}
    .fil1 {fill:#0A2512}
    .fil2 {fill:#2B7839}
    .fil3 {fill:#49C447;fill-rule:nonzero}
  </style><filter id="filter5033" height="1.8558083" width="1.0786139" color-interpolation-filters="sRGB" y="-0.42790407" x="-0.039306931"><feGaussianBlur stdDeviation="0.1647609"/></filter><filter id="filter5183" height="1.4584062" width="1.085416" color-interpolation-filters="sRGB" y="-0.2292031" x="-0.042707969"><feGaussianBlur stdDeviation="0.529335"/></filter></defs>
 <g transform="translate(-14.873004,17.661691)"><rect class="fil0" height="9.663" width="34.55" y="-17.66" x="14.87" fill="#010101"/><path d="m31.71-16.36c-0.038,0-0.076-0.0311-0.0885-0.0679-0.007,0.0119-0.0172,0.0221-0.0309,0.0295l-0.043,0.0232-0.0059,0.005,0.0049,0.083h0.1711v-0.0726h-0.0077zm-0.1633-0.2128c0.0382,0,0.0661,0.0256,0.079,0.0579,0.0154-0.0322,0.0498-0.0579,0.0843-0.0579h0.3392c0.086,0,0.1214,0.1278,0.0475,0.1722l-0.0677,0.0407v0.3986l3.36-0.0131-0.0089-0.405-0.0355-0.0212c-0.0586-0.0349-0.0586-0.1239,0-0.1588l0.0228-0.0137c0.0056-0.003,0.041-0.0134,0.0475-0.0134h0.5587c0.043,0,0.0896,0.0433,0.0928,0.086l0.0114,0.1495c0.0032,0.0419-0.0236,0.0755-0.0582,0.0901l-0.0074,0.1503h0.0298c0.0577,0,0.104,0.0593,0.0899,0.1153l-0.0059,0.0234,1.032,0.0244c0.0604,0.001,0.1052,0.0658,0.0855,0.1229l-0.0342,0.0994c-0.0101,0.0296-0.0564,0.0628-0.0877,0.0628h-9.681c-0.0464,0-0.0928-0.0465-0.0928-0.0929,0-0.008,0.0001-0.0298,0.0043-0.057,0.0061-0.0389,0.022-0.08,0.0584-0.1047l0.0003-0.0002c0.0006-0.0004,0.0012-0.0008,0.0018-0.001l0.0323-0.0231,0.0051-0.0122-0.0086-0.3782-0.0224,0.003-0.0047,0.014c0,0.0001-0.0021,0.006-0.0021,0.007-0.0353,0.0841-0.0673,0.0841-0.1312,0.0841-0.0495,0-0.096-0.0493-0.0928-0.0986l0.0114-0.1767c0.0027-0.0433,0.0493-0.0871,0.0928-0.0871h0.6043c0.0285,0,0.0746,0.0308,0.0856,0.057,0.0159,0.0379,0.0239,0.0754,0.0258,0.1148,0.0017,0.035-0.0017,0.0721-0.0086,0.113-0.0064,0.0382-0.0527,0.0776-0.0914,0.0776-0.049,0-0.0821-0.0233-0.1065-0.064-0.0039-0.006-0.0073-0.0133-0.0105-0.0206l-0.0322-0.009-0.0081,0.3638c0.0058,0.0003,0.0147-0.0001,0.0293,0.006l3.448-0.0132v-0.3985c-0.0059-0.0004-0.0128-0.0007-0.0203-0.0007-0.0464,0-0.0928-0.0464-0.0928-0.0928v-0.0272c0-0.0464,0.0464-0.0928,0.0928-0.0928h0.3392zm-4.137,0.6556,0.0018-0.001m-0.0021,0.001c0.0001-0.0001,0.0002-0.0001,0.0003-0.0002m8.422-0.0581c0.0107-0.003,0.0205-0.006,0.0293-0.01-0.0089-0.006-0.0168-0.0143-0.0231-0.0245l-0.0326-0.0516h-0.1042v0.0427l0.0033,0.0349,0.1273,0.008zm-0.0067-0.0856-0.0062,0-0.0048,0.004c0.0041-0.001,0.0104-0.002,0.014-0.003l0.0009-0.001c-0.0009,0-0.0022-0.0001-0.0039-0.0001zm-0.0062,0-0.0018,0-0.0075,0.006c-0.0004-0.0005,0.0003,0.0003,0.0015,0.002-0.0003-0.0004-0.0005-0.0007-0.0005-0.0007-0.001-0.001,0.0007-0.002,0.0035-0.003l0.0048-0.004zm0.0092,0.001c0.0029-0.0006,0.004-0.0008,0.0009-0.001l-0.0009,0.001zm-0.0202-0.2658c0.0033-0.008,0.0096-0.0158,0.0176-0.0235l-0.1219-0.006-0.0024,0.0254v0.0173c0.0063,0.0009,0.0126,0.002,0.0136,0.002l0.0708,0.0211c0.0003-0.0003,0.0007-0.0005,0.001-0.0008l0.0002,0.0001c0.0074-0.007,0.0145-0.0197,0.0211-0.0355zm-4.269,0.2783,0,0.0567c0,0.007,0.0003,0.0131,0.0006,0.0185l0.1759,0.009c0.0014-0.007,0.0022-0.0161,0.0022-0.026v-0.001-0.0567h-0.1787z" fill-rule="nonzero" filter="url(#filter5033)" class="fil3" fill="#82ff82"/><path d="m31.71-16.36c-0.038,0-0.076-0.0311-0.0885-0.0679-0.007,0.0119-0.0172,0.0221-0.0309,0.0295l-0.043,0.0232-0.0059,0.005,0.0049,0.083h0.1711v-0.0726h-0.0077zm-0.1633-0.2128c0.0382,0,0.0661,0.0256,0.079,0.0579,0.0154-0.0322,0.0498-0.0579,0.0843-0.0579h0.3392c0.086,0,0.1214,0.1278,0.0475,0.1722l-0.0677,0.0407v0.3986l3.36-0.0131-0.0089-0.405-0.0355-0.0212c-0.0586-0.0349-0.0586-0.1239,0-0.1588l0.0228-0.0137c0.0056-0.003,0.041-0.0134,0.0475-0.0134h0.5587c0.043,0,0.0896,0.0433,0.0928,0.086l0.0114,0.1495c0.0032,0.0419-0.0236,0.0755-0.0582,0.0901l-0.0074,0.1503h0.0298c0.0577,0,0.104,0.0593,0.0899,0.1153l-0.0059,0.0234,1.032,0.0244c0.0604,0.001,0.1052,0.0658,0.0855,0.1229l-0.0342,0.0994c-0.0101,0.0296-0.0564,0.0628-0.0877,0.0628h-9.681c-0.0464,0-0.0928-0.0465-0.0928-0.0929,0-0.008,0.0001-0.0298,0.0043-0.057,0.0061-0.0389,0.022-0.08,0.0584-0.1047l0.0003-0.0002c0.0006-0.0004,0.0012-0.0008,0.0018-0.001l0.0323-0.0231,0.0051-0.0122-0.0086-0.3782-0.0224,0.003-0.0047,0.014c0,0.0001-0.0021,0.006-0.0021,0.007-0.0353,0.0841-0.0673,0.0841-0.1312,0.0841-0.0495,0-0.096-0.0493-0.0928-0.0986l0.0114-0.1767c0.0027-0.0433,0.0493-0.0871,0.0928-0.0871h0.6043c0.0285,0,0.0746,0.0308,0.0856,0.057,0.0159,0.0379,0.0239,0.0754,0.0258,0.1148,0.0017,0.035-0.0017,0.0721-0.0086,0.113-0.0064,0.0382-0.0527,0.0776-0.0914,0.0776-0.049,0-0.0821-0.0233-0.1065-0.064-0.0039-0.006-0.0073-0.0133-0.0105-0.0206l-0.0322-0.009-0.0081,0.3638c0.0058,0.0003,0.0147-0.0001,0.0293,0.006l3.448-0.0132v-0.3985c-0.0059-0.0004-0.0128-0.0007-0.0203-0.0007-0.0464,0-0.0928-0.0464-0.0928-0.0928v-0.0272c0-0.0464,0.0464-0.0928,0.0928-0.0928h0.3392zm-4.137,0.6556,0.0018-0.001m-0.0021,0.001c0.0001-0.0001,0.0002-0.0001,0.0003-0.0002m8.422-0.0581c0.0107-0.003,0.0205-0.006,0.0293-0.01-0.0089-0.006-0.0168-0.0143-0.0231-0.0245l-0.0326-0.0516h-0.1042v0.0427l0.0033,0.0349,0.1273,0.008zm-0.0067-0.0856-0.0062,0-0.0048,0.004c0.0041-0.001,0.0104-0.002,0.014-0.003l0.0009-0.001c-0.0009,0-0.0022-0.0001-0.0039-0.0001zm-0.0062,0-0.0018,0-0.0075,0.006c-0.0004-0.0005,0.0003,0.0003,0.0015,0.002-0.0003-0.0004-0.0005-0.0007-0.0005-0.0007-0.001-0.001,0.0007-0.002,0.0035-0.003l0.0048-0.004zm0.0092,0.001c0.0029-0.0006,0.004-0.0008,0.0009-0.001l-0.0009,0.001zm-0.0202-0.2658c0.0033-0.008,0.0096-0.0158,0.0176-0.0235l-0.1219-0.006-0.0024,0.0254v0.0173c0.0063,0.0009,0.0126,0.002,0.0136,0.002l0.0708,0.0211c0.0003-0.0003,0.0007-0.0005,0.001-0.0008l0.0002,0.0001c0.0074-0.007,0.0145-0.0197,0.0211-0.0355zm-4.269,0.2783,0,0.0567c0,0.007,0.0003,0.0131,0.0006,0.0185l0.1759,0.009c0.0014-0.007,0.0022-0.0161,0.0022-0.026v-0.001-0.0567h-0.1787z" fill-rule="nonzero" class="fil3" fill="#49c447"/><path d="m21.47-10.42l-0.0001-0.0001c-0.0001,0.0001-0.0004-0.0005-0.0004-0.0006-0.0001,0-0.0001,0,0.0001,0.0004l0.0004,0.0003zm8.979,0.1432m-0.0012,0.0002h0.0001m-0.0032,0.0005c-0.0001,0.0001-0.0002,0.0001-0.0003,0.0001,0.0001,0,0.0002,0,0.0003-0.0001zm0.0024-0.0003h-0.0001,0.0001zm0.0022-0.0005l0.0001,0.0001-0.0001-0.0001zm-0.1786-4.325,0.0001,0m0.896,0.1622c0-0.001-0.0002-0.002-0.0002-0.002-0.0031-0.004-0.0017-0.001,0.0002,0.002zm15.81-0.4939,0,0.2465c0,0.0464-0.0466,0.0926-0.0929,0.0926h-0.1034c-0.1901,0-0.2209,0.0448-0.3948,0.2977-0.0481,0.0699-0.1056,0.1536-0.1737,0.248l-0.82,1.138c-0.0112,0.0156-0.0561,0.0386-0.0753,0.0386l-0.4219-0.0001c-0.0289,0-0.0534-0.0134-0.0698-0.0334l-0.141,0.1957,1.413,1.858,0.0004,0.0001,0.0011,0.001-0.0002,0.0001c0.2341,0.307,0.3833,0.5022,0.5996,0.5022l0.1864,0.0001c0.0463,0,0.0926,0.0466,0.0926,0.0929v0.2575c0,0.0464-0.0466,0.0926-0.0929,0.0926h-2.118c-0.0463,0-0.0926-0.0465-0.0926-0.0929v-0.2575c0-0.0464,0.0466-0.0927,0.0929-0.0926h0.3479c0.0593,0,0.1001-0.01,0.1225-0.027,0.0054-0.004,0.0093-0.009,0.0116-0.0134,0.0024-0.005,0.0036-0.0113,0.0037-0.0189,0-0.0322-0.0192-0.0754-0.0578-0.1261l-1.08-1.417-0.913,1.267c-0.0537,0.0746-0.0778,0.1384-0.0778,0.1895,0,0.0213,0.0044,0.04,0.0126,0.0555,0.0084,0.0161,0.0215,0.0305,0.0384,0.0427,0.0429,0.0309,0.1089,0.0479,0.1914,0.0479h0.2253c0.0464,0.0001,0.0926,0.0466,0.0926,0.093v0.2575c0,0.0464-0.0465,0.0926-0.0929,0.0926h-1.719c-0.0464,0-0.0927-0.0465-0.0926-0.0929v-0.2575c0-0.0464,0.0465-0.0927,0.0929-0.0927l0.2378,0.0001c0.2476,0,0.311-0.0885,0.6151-0.513,0.0067-0.009,0.0273-0.038,0.0907-0.126l1.025-1.424-0.4148-0.4938c-0.049-0.0584-0.0051-0.1525,0.0711-0.1524h0.2609l-0.8413-1.137-0.0011-0.002c-0.1116-0.1592-0.1909-0.2665-0.2863-0.3294-0.0925-0.0609-0.2112-0.0862-0.4077-0.0862-0.042,0-0.0841-0.0382-0.0915-0.0799h-1.047l0.0001,0.0153c-0.0001,0.0452-0.0455,0.0915-0.0907,0.0926-0.0135,0.0003-0.0514,0.0009-0.0887,0.001-0.3407,0.006-0.487,0.008-0.4871,0.5362l-0.0003,0.0001,0.0114,3.039c0.0006,0.2229,0.0607,0.3341,0.1536,0.3876,0.1005,0.0577,0.252,0.061,0.4119,0.061,0.0464,0,0.0927,0.0465,0.0927,0.0929v0.2942c0,0.0465-0.0468,0.0928-0.0933,0.0926l-3.43-0.016c-0.0457-0.0002-0.0917-0.0463-0.092-0.0921l-0.0003-0.0429h-0.0184c-0.0181,0-0.0624-0.0221-0.0735-0.0365l-1.516-1.978h-0.1925v1.352c-0.0002,0.1569,0.0587,0.2389,0.1415,0.2808,0.095,0.0481,0.2269,0.054,0.3456,0.0542,0.046,0,0.0921,0.0464,0.0923,0.0925l0.0006,0.1535c0.0002,0.0465-0.0463,0.0931-0.0926,0.093h-0.8001c-0.0459,0-0.0921-0.0461-0.0924-0.0921l-0.0109-1.634-3.171-0.0136v0.5728c0,0.4657,0.2748,0.4687,0.4846,0.471,0.0273,0.0003,0.0538,0.0006,0.0835,0.002,0.0443,0.002,0.0886,0.0484,0.0886,0.0926l0.0001,0.1803c0,0.0463-0.0466,0.0926-0.093,0.0926l-1.037-0.0001,0.0037,0.5313c0.0003,0.0467-0.0462,0.0934-0.0927,0.0934h-1.048c-0.0436-0.0001-0.0899-0.0439-0.0925-0.0874l-0.0101-0.1697c-0.0026-0.0448,0.0396-0.0937,0.0842-0.0978l0.0001,0.0001h-0.0001,0.0001c0.04-0.005,0.0848-0.007,0.1322-0.009,0.0781-0.004,0.1642-0.008,0.242-0.0258l-4.13-0.0149c-0.0464-0.0002-0.0924-0.0469-0.0922-0.0933l0.0006-0.1164c0.0002-0.0405,0.0416-0.0867,0.0817-0.0916,0.0071-0.0009,0.0143-0.002,0.0216-0.003,0.1217-0.0147,0.2691-0.0327,0.3286-0.1183,0.0156-0.0226,0.0262-0.0499,0.0288-0.0828,0.003-0.0375-0.0038-0.0832-0.024-0.1386l-0.3438-0.8074-1.521-0.0148c-0.0877,0.2267-0.1389,0.3353-0.1745,0.4108-0.0301,0.064-0.0484,0.1029-0.0664,0.1663l-0.0011,0.004c-0.0378,0.1135-0.0573,0.196-0.0621,0.2607-0.0042,0.0566,0.0036,0.0999,0.0203,0.141,0.0211,0.0522,0.0697,0.0866,0.1249,0.1097,0.0641,0.0269,0.1397,0.0391,0.1983,0.0461,0.0396,0.005,0.0808,0.0506,0.0816,0.0906l0.0031,0.1424c0.0009,0.0473-0.0456,0.0944-0.0929,0.0944h-1.289c-0.0463,0-0.0926-0.0466-0.0926-0.0929v-0.1583c0-0.0477,0.0481-0.0939,0.0958-0.0925,0.0742,0.002,0.1357,0.002,0.1857-0.004v-0.0002c0.0426-0.005,0.0769-0.0155,0.1044-0.0334,0.1028-0.0674,0.1386-0.1603,0.1977-0.314h0.0001c0.016-0.0418,0.034-0.0884,0.0592-0.1493l1.123-2.705-3.07-0.01-0.0001,3.493c0,0.0456-0.0458,0.0918-0.0914,0.0925l-1.04,0.0159c-0.0203,0.0003-0.0657-0.0228-0.0774-0.0394l-0.0001-0.0003-0.0003-0.0008c-0.006-0.009-0.0112-0.0183-0.015-0.0279l0.0005-0.0002c-0.0035-0.009-0.0063-0.0175-0.0082-0.0256-0.0092-0.0389-0.0113-0.1005,0.0118-0.1656,0.0094-0.0262,0.0535-0.0597,0.0813-0.0615l0.4355-0.0294c0.0537-0.005,0.0971-0.0153,0.1208-0.0405,0.0267-0.0283,0.0408-0.0838,0.0373-0.1844l-0.0002-0.003v-2.811l-1.439,3.038c-0.0023,0.005-0.0047,0.01-0.0069,0.0148-0.0392,0.0825-0.0605,0.1276-0.0628,0.2249-0.0011,0.0431-0.0457,0.0882-0.0888,0.0901-0.0355,0.002-0.062,0.0003-0.0884-0.001-0.0246-0.001-0.0494-0.002-0.0698-0.002-0.0483,0.002-0.0967-0.0444-0.0967-0.0925-0.0001-0.0906-0.0029-0.149-0.0129-0.1997-0.01-0.0509-0.0282-0.1003-0.0589-0.1727-0.2799-0.6594-0.6017-1.288-0.9235-1.916-0.1021-0.1994-0.2041-0.3987-0.3031-0.5953l-0.0025,1.842c-0.0001,0.0106-0.0147,0.0509-0.0216,0.0591l-0.0921,0.1107v1.482c0,0.0463-0.0466,0.0926-0.0929,0.0926h-0.9798c-0.0454,0-0.0916-0.0457-0.0926-0.0911l-0.0028-0.1338c-0.0008-0.0402,0.0389-0.0871,0.0787-0.0932l0.4738-0.073c0.0581-0.0159,0.0891-0.0444,0.1064-0.085,0.0231-0.054,0.0308-0.1382,0.04-0.2414h0.0002l-0.0109-3.901v-0.0008h-0.0001c0-0.0002,0.0001-0.0002,0-0.0004,0-0.0106-0.0011-0.0218-0.0031-0.0332-0.0015-0.009-0.0038-0.0176-0.0068-0.0251-0.0135-0.0341-0.0512-0.056-0.1218-0.0561l-0.0004-0.0001-0.4646-0.001c-0.0458-0.0002-0.0917-0.0465-0.0919-0.0925l-0.0005-0.1276c-0.0003-0.046,0.0455-0.0924,0.0914-0.0929l0.4909-0.005c-0.0038-0.0601-0.006-0.0916-0.012-0.0987-0.0064-0.008-0.0255-0.0136-0.056-0.0193-0.0483-0.009-0.1117-0.0137-0.1914-0.0192v0.0001h-0.0014c-0.0747-0.004-0.17-0.009-0.2658-0.0141-0.0919-0.005-0.1848-0.01-0.2818-0.015-0.0437-0.003-0.0875-0.0491-0.0875-0.0928v-0.1383c0-0.0463,0.0465-0.0926,0.0929-0.0926l1.392,0.0001c0.0193,0,0.0639,0.0232,0.0752,0.039l0.0114,0.016c0.005,0.007,0.0174,0.0453,0.0174,0.0538v0.3792l0.1712-0.002c0.027-0.0002,0.0731,0.0288,0.0845,0.0532l1.43,3.037,1.444-3.032c0.011-0.0231,0.0563-0.0525,0.0819-0.0529l0.3964-0.007c0.0468-0.0008,0.0939,0.0455,0.0942,0.0924l0.0023,0.4463,3.724,0.0151-0.0125-0.0332c-0.0221-0.0587,0.0243-0.1254,0.0869-0.1254h0.4782c0.0291,0,0.075,0.0315,0.0858,0.0586l0.7499,1.878c0.0235,0.059-0.0228,0.1269-0.0861,0.1269h-0.2769c0.11,0.2822,0.2506,0.6009,0.4205,0.9857,0.0582,0.132,0.1204,0.2728,0.1612,0.3659h0.0001c0.0264,0.0549,0.0566,0.0979,0.0905,0.1312l-0.0002,0.0001c0.0327,0.0321,0.0696,0.0558,0.1102,0.0731,0.0495,0.0212,0.0975,0.0338,0.151,0.0415,0.0575,0.008,0.12,0.0107,0.1955,0.0118v-0.0002h2.757c0.0037-0.017,0.0062-0.0333,0.0079-0.0517,0.0042-0.0446,0.0041-0.0997,0.0042-0.1983v-3.464-0.0277l-0.8936,0.0147s-0.0051-0.0002-0.0051-0.0002c-0.1622-0.007-0.2859,0.046-0.3698,0.1601-0.0923,0.1253-0.1436,0.3247-0.1527,0.6003-0.0015,0.0448-0.048,0.0898-0.0927,0.0898h-0.2097c-0.0463,0-0.0926-0.0467-0.0926-0.093l-0.0018-1.109c-0.0001-0.0464,0.0465-0.0927,0.0929-0.0926l1.781-0.0001v-0.0952c0.0001-0.0463,0.0466-0.0926,0.0929-0.0926h2.272,0.0113c0.046,0,0.0922,0.0463,0.0923,0.0925l0.0038,1.023c0.0002,0.0465-0.0463,0.093-0.0926,0.093h-0.2084c-0.0404,0-0.0867-0.0409-0.0918-0.081-0.0037-0.0288-0.0068-0.0554-0.01-0.0826-0.0317-0.2703-0.0706-0.6018-0.3659-0.6188l-0.7461,0.002-0.0001,0.0003c-0.0643,0.0002-0.0937-0.002-0.0943-0.0008-0.0082,0.0119-0.0084,0.0694-0.0084,0.1787v2.111h3.171l0.0103-2.144,0.0001-0.0004c0-0.008-0.0001-0.007,0-0.0192,0.0008-0.2243,0.001-0.2913,0.2085-0.2913h0.8171v0.0001c0.164-0.002,0.3-0.0003,0.4196,0.0123,0.1248,0.0131,0.2354,0.0377,0.3454,0.0797,0.1052,0.0402,0.164,0.0713,0.2034,0.1413,0.0356,0.0634,0.0414,0.1407,0.0414,0.275v1.435c0,0.1053-0.0055,0.1635-0.0352,0.2152-0.032,0.0556-0.0755,0.0804-0.1531,0.122l-0.0003,0.0001v0.0001c-0.0175,0.009-0.0375,0.0191-0.0594,0.029-0.0242,0.011-0.0462,0.0203-0.066,0.0279l-0.0004-0.0001c-0.0806,0.0312-0.1774,0.0605-0.2874,0.0865l1.382,1.615,0.0004,0.0004c0.0147,0.0148,0.0305,0.0293,0.0475,0.0432,0.0161,0.0131,0.0332,0.0257,0.0509,0.0373,0.0898,0.0588,0.1955,0.0925,0.3111,0.1026,0.0413,0.004,0.0837,0.0496,0.0845,0.0912l0.0001,0.01h0.317v-0.002c-0.0007-0.0465,0.0451-0.0934,0.0917-0.0939,0.2412-0.002,0.3998-0.0109,0.487-0.0678l0.0001-0.0004c0.0778-0.0507,0.1096-0.1583,0.1119-0.3653h-0.0001l-0.0001-3.259c0.0001-0.3264-0.2165-0.3294-0.5256-0.3336-0.0171-0.0003-0.0232-0.0003-0.0698-0.001-0.0454-0.0008-0.0908-0.0472-0.0908-0.0926l0.0001-0.1746c0-0.0464,0.0466-0.0927,0.0929-0.0927h1.308c0.0082-0.0408,0.0498-0.0779,0.0911-0.0781l1.904-0.007c0.0043-0.0008,0.0086-0.001,0.0128-0.001l1.95-0.0001c0.0463,0,0.0926,0.0466,0.0926,0.0929v0.2577c0,0.0463-0.0466,0.0926-0.0929,0.0926h-0.3067c-0.0283,0-0.0508,0.007-0.066,0.0179l0.0002,0.0002c-0.0079,0.006-0.0139,0.0128-0.0175,0.0202-0.004,0.008-0.0061,0.0183-0.0061,0.0302-0.0001,0.0282,0.0125,0.0626,0.0406,0.1001l0.0003-0.0001,0.9857,1.312,0.8618-1.196c0.0495-0.0687,0.0716-0.1279,0.0712-0.1746-0.0001-0.0174-0.0038-0.033-0.0107-0.0462-0.0066-0.0128-0.0168-0.0243-0.03-0.0338-0.0324-0.0234-0.082-0.0362-0.1448-0.0356l-0.3381,0.003c-0.0468,0.0004-0.0934-0.0463-0.0933-0.0931l0.0005-0.2509c0.0001-0.0462,0.0466-0.0923,0.0928-0.0922l1.591-0.0001c0.0463,0,0.0926,0.0466,0.0926,0.0929zm-9.982,1.808v0.0003m-0.7415-1.22-0.5739,0.004-0.0103,1.714,0.366,0.0008,0.0007,0.0001c0.0086,0.0001,0.015,0.0001,0.019,0.0001,0.1976-0.002,0.3893-0.071,0.5319-0.1724,0.132-0.0939,0.2191-0.2125,0.2227-0.3242,0.0001,0.007,0.0004,0.0229,0.0001-0.003-0.0001,0.0008-0.0001,0.001-0.0001,0.002v0.0005-0.0005c-0.0001-0.002-0.0001-0.004-0.0001-0.003h0.0002c-0.0001-0.002,0-0.003,0-0.005l-0.0001-0.002,0.0026-0.6198v-0.001h-0.0001c-0.0001-0.0438-0.0045-0.086-0.0129-0.1259-0.0084-0.0404-0.021-0.0798-0.0374-0.1172-0.083-0.1896-0.2651-0.3293-0.5083-0.3476zm-9.729,2.162-0.599-1.374-0.5842,1.378,1.183-0.004z" fill-rule="nonzero" class="fil3" fill="#49c447"/><path d="m21.47-10.42l-0.0001-0.0001c-0.0001,0.0001-0.0004-0.0005-0.0004-0.0006-0.0001,0-0.0001,0,0.0001,0.0004l0.0004,0.0003zm8.979,0.1432m-0.0012,0.0002h0.0001m-0.0032,0.0005c-0.0001,0.0001-0.0002,0.0001-0.0003,0.0001,0.0001,0,0.0002,0,0.0003-0.0001zm0.0024-0.0003h-0.0001,0.0001zm0.0022-0.0005l0.0001,0.0001-0.0001-0.0001zm-0.1786-4.325,0.0001,0m0.896,0.1622c0-0.001-0.0002-0.002-0.0002-0.002-0.0031-0.004-0.0017-0.001,0.0002,0.002zm15.81-0.4939,0,0.2465c0,0.0464-0.0466,0.0926-0.0929,0.0926h-0.1034c-0.1901,0-0.2209,0.0448-0.3948,0.2977-0.0481,0.0699-0.1056,0.1536-0.1737,0.248l-0.82,1.138c-0.0112,0.0156-0.0561,0.0386-0.0753,0.0386l-0.4219-0.0001c-0.0289,0-0.0534-0.0134-0.0698-0.0334l-0.141,0.1957,1.413,1.858,0.0004,0.0001,0.0011,0.001-0.0002,0.0001c0.2341,0.307,0.3833,0.5022,0.5996,0.5022l0.1864,0.0001c0.0463,0,0.0926,0.0466,0.0926,0.0929v0.2575c0,0.0464-0.0466,0.0926-0.0929,0.0926h-2.118c-0.0463,0-0.0926-0.0465-0.0926-0.0929v-0.2575c0-0.0464,0.0466-0.0927,0.0929-0.0926h0.3479c0.0593,0,0.1001-0.01,0.1225-0.027,0.0054-0.004,0.0093-0.009,0.0116-0.0134,0.0024-0.005,0.0036-0.0113,0.0037-0.0189,0-0.0322-0.0192-0.0754-0.0578-0.1261l-1.08-1.417-0.913,1.267c-0.0537,0.0746-0.0778,0.1384-0.0778,0.1895,0,0.0213,0.0044,0.04,0.0126,0.0555,0.0084,0.0161,0.0215,0.0305,0.0384,0.0427,0.0429,0.0309,0.1089,0.0479,0.1914,0.0479h0.2253c0.0464,0.0001,0.0926,0.0466,0.0926,0.093v0.2575c0,0.0464-0.0465,0.0926-0.0929,0.0926h-1.719c-0.0464,0-0.0927-0.0465-0.0926-0.0929v-0.2575c0-0.0464,0.0465-0.0927,0.0929-0.0927l0.2378,0.0001c0.2476,0,0.311-0.0885,0.6151-0.513,0.0067-0.009,0.0273-0.038,0.0907-0.126l1.025-1.424-0.4148-0.4938c-0.049-0.0584-0.0051-0.1525,0.0711-0.1524h0.2609l-0.8413-1.137-0.0011-0.002c-0.1116-0.1592-0.1909-0.2665-0.2863-0.3294-0.0925-0.0609-0.2112-0.0862-0.4077-0.0862-0.042,0-0.0841-0.0382-0.0915-0.0799h-1.047l0.0001,0.0153c-0.0001,0.0452-0.0455,0.0915-0.0907,0.0926-0.0135,0.0003-0.0514,0.0009-0.0887,0.001-0.3407,0.006-0.487,0.008-0.4871,0.5362l-0.0003,0.0001,0.0114,3.039c0.0006,0.2229,0.0607,0.3341,0.1536,0.3876,0.1005,0.0577,0.252,0.061,0.4119,0.061,0.0464,0,0.0927,0.0465,0.0927,0.0929v0.2942c0,0.0465-0.0468,0.0928-0.0933,0.0926l-3.43-0.016c-0.0457-0.0002-0.0917-0.0463-0.092-0.0921l-0.0003-0.0429h-0.0184c-0.0181,0-0.0624-0.0221-0.0735-0.0365l-1.516-1.978h-0.1925v1.352c-0.0002,0.1569,0.0587,0.2389,0.1415,0.2808,0.095,0.0481,0.2269,0.054,0.3456,0.0542,0.046,0,0.0921,0.0464,0.0923,0.0925l0.0006,0.1535c0.0002,0.0465-0.0463,0.0931-0.0926,0.093h-0.8001c-0.0459,0-0.0921-0.0461-0.0924-0.0921l-0.0109-1.634-3.171-0.0136v0.5728c0,0.4657,0.2748,0.4687,0.4846,0.471,0.0273,0.0003,0.0538,0.0006,0.0835,0.002,0.0443,0.002,0.0886,0.0484,0.0886,0.0926l0.0001,0.1803c0,0.0463-0.0466,0.0926-0.093,0.0926l-1.037-0.0001,0.0037,0.5313c0.0003,0.0467-0.0462,0.0934-0.0927,0.0934h-1.048c-0.0436-0.0001-0.0899-0.0439-0.0925-0.0874l-0.0101-0.1697c-0.0026-0.0448,0.0396-0.0937,0.0842-0.0978l0.0001,0.0001h-0.0001,0.0001c0.04-0.005,0.0848-0.007,0.1322-0.009,0.0781-0.004,0.1642-0.008,0.242-0.0258l-4.13-0.0149c-0.0464-0.0002-0.0924-0.0469-0.0922-0.0933l0.0006-0.1164c0.0002-0.0405,0.0416-0.0867,0.0817-0.0916,0.0071-0.0009,0.0143-0.002,0.0216-0.003,0.1217-0.0147,0.2691-0.0327,0.3286-0.1183,0.0156-0.0226,0.0262-0.0499,0.0288-0.0828,0.003-0.0375-0.0038-0.0832-0.024-0.1386l-0.3438-0.8074-1.521-0.0148c-0.0877,0.2267-0.1389,0.3353-0.1745,0.4108-0.0301,0.064-0.0484,0.1029-0.0664,0.1663l-0.0011,0.004c-0.0378,0.1135-0.0573,0.196-0.0621,0.2607-0.0042,0.0566,0.0036,0.0999,0.0203,0.141,0.0211,0.0522,0.0697,0.0866,0.1249,0.1097,0.0641,0.0269,0.1397,0.0391,0.1983,0.0461,0.0396,0.005,0.0808,0.0506,0.0816,0.0906l0.0031,0.1424c0.0009,0.0473-0.0456,0.0944-0.0929,0.0944h-1.289c-0.0463,0-0.0926-0.0466-0.0926-0.0929v-0.1583c0-0.0477,0.0481-0.0939,0.0958-0.0925,0.0742,0.002,0.1357,0.002,0.1857-0.004v-0.0002c0.0426-0.005,0.0769-0.0155,0.1044-0.0334,0.1028-0.0674,0.1386-0.1603,0.1977-0.314h0.0001c0.016-0.0418,0.034-0.0884,0.0592-0.1493l1.123-2.705-3.07-0.01-0.0001,3.493c0,0.0456-0.0458,0.0918-0.0914,0.0925l-1.04,0.0159c-0.0203,0.0003-0.0657-0.0228-0.0774-0.0394l-0.0001-0.0003-0.0003-0.0008c-0.006-0.009-0.0112-0.0183-0.015-0.0279l0.0005-0.0002c-0.0035-0.009-0.0063-0.0175-0.0082-0.0256-0.0092-0.0389-0.0113-0.1005,0.0118-0.1656,0.0094-0.0262,0.0535-0.0597,0.0813-0.0615l0.4355-0.0294c0.0537-0.005,0.0971-0.0153,0.1208-0.0405,0.0267-0.0283,0.0408-0.0838,0.0373-0.1844l-0.0002-0.003v-2.811l-1.439,3.038c-0.0023,0.005-0.0047,0.01-0.0069,0.0148-0.0392,0.0825-0.0605,0.1276-0.0628,0.2249-0.0011,0.0431-0.0457,0.0882-0.0888,0.0901-0.0355,0.002-0.062,0.0003-0.0884-0.001-0.0246-0.001-0.0494-0.002-0.0698-0.002-0.0483,0.002-0.0967-0.0444-0.0967-0.0925-0.0001-0.0906-0.0029-0.149-0.0129-0.1997-0.01-0.0509-0.0282-0.1003-0.0589-0.1727-0.2799-0.6594-0.6017-1.288-0.9235-1.916-0.1021-0.1994-0.2041-0.3987-0.3031-0.5953l-0.0025,1.842c-0.0001,0.0106-0.0147,0.0509-0.0216,0.0591l-0.0921,0.1107v1.482c0,0.0463-0.0466,0.0926-0.0929,0.0926h-0.9798c-0.0454,0-0.0916-0.0457-0.0926-0.0911l-0.0028-0.1338c-0.0008-0.0402,0.0389-0.0871,0.0787-0.0932l0.4738-0.073c0.0581-0.0159,0.0891-0.0444,0.1064-0.085,0.0231-0.054,0.0308-0.1382,0.04-0.2414h0.0002l-0.0109-3.901v-0.0008h-0.0001c0-0.0002,0.0001-0.0002,0-0.0004,0-0.0106-0.0011-0.0218-0.0031-0.0332-0.0015-0.009-0.0038-0.0176-0.0068-0.0251-0.0135-0.0341-0.0512-0.056-0.1218-0.0561l-0.0004-0.0001-0.4646-0.001c-0.0458-0.0002-0.0917-0.0465-0.0919-0.0925l-0.0005-0.1276c-0.0003-0.046,0.0455-0.0924,0.0914-0.0929l0.4909-0.005c-0.0038-0.0601-0.006-0.0916-0.012-0.0987-0.0064-0.008-0.0255-0.0136-0.056-0.0193-0.0483-0.009-0.1117-0.0137-0.1914-0.0192v0.0001h-0.0014c-0.0747-0.004-0.17-0.009-0.2658-0.0141-0.0919-0.005-0.1848-0.01-0.2818-0.015-0.0437-0.003-0.0875-0.0491-0.0875-0.0928v-0.1383c0-0.0463,0.0465-0.0926,0.0929-0.0926l1.392,0.0001c0.0193,0,0.0639,0.0232,0.0752,0.039l0.0114,0.016c0.005,0.007,0.0174,0.0453,0.0174,0.0538v0.3792l0.1712-0.002c0.027-0.0002,0.0731,0.0288,0.0845,0.0532l1.43,3.037,1.444-3.032c0.011-0.0231,0.0563-0.0525,0.0819-0.0529l0.3964-0.007c0.0468-0.0008,0.0939,0.0455,0.0942,0.0924l0.0023,0.4463,3.724,0.0151-0.0125-0.0332c-0.0221-0.0587,0.0243-0.1254,0.0869-0.1254h0.4782c0.0291,0,0.075,0.0315,0.0858,0.0586l0.7499,1.878c0.0235,0.059-0.0228,0.1269-0.0861,0.1269h-0.2769c0.11,0.2822,0.2506,0.6009,0.4205,0.9857,0.0582,0.132,0.1204,0.2728,0.1612,0.3659h0.0001c0.0264,0.0549,0.0566,0.0979,0.0905,0.1312l-0.0002,0.0001c0.0327,0.0321,0.0696,0.0558,0.1102,0.0731,0.0495,0.0212,0.0975,0.0338,0.151,0.0415,0.0575,0.008,0.12,0.0107,0.1955,0.0118v-0.0002h2.757c0.0037-0.017,0.0062-0.0333,0.0079-0.0517,0.0042-0.0446,0.0041-0.0997,0.0042-0.1983v-3.464-0.0277l-0.8936,0.0147s-0.0051-0.0002-0.0051-0.0002c-0.1622-0.007-0.2859,0.046-0.3698,0.1601-0.0923,0.1253-0.1436,0.3247-0.1527,0.6003-0.0015,0.0448-0.048,0.0898-0.0927,0.0898h-0.2097c-0.0463,0-0.0926-0.0467-0.0926-0.093l-0.0018-1.109c-0.0001-0.0464,0.0465-0.0927,0.0929-0.0926l1.781-0.0001v-0.0952c0.0001-0.0463,0.0466-0.0926,0.0929-0.0926h2.272,0.0113c0.046,0,0.0922,0.0463,0.0923,0.0925l0.0038,1.023c0.0002,0.0465-0.0463,0.093-0.0926,0.093h-0.2084c-0.0404,0-0.0867-0.0409-0.0918-0.081-0.0037-0.0288-0.0068-0.0554-0.01-0.0826-0.0317-0.2703-0.0706-0.6018-0.3659-0.6188l-0.7461,0.002-0.0001,0.0003c-0.0643,0.0002-0.0937-0.002-0.0943-0.0008-0.0082,0.0119-0.0084,0.0694-0.0084,0.1787v2.111h3.171l0.0103-2.144,0.0001-0.0004c0-0.008-0.0001-0.007,0-0.0192,0.0008-0.2243,0.001-0.2913,0.2085-0.2913h0.8171v0.0001c0.164-0.002,0.3-0.0003,0.4196,0.0123,0.1248,0.0131,0.2354,0.0377,0.3454,0.0797,0.1052,0.0402,0.164,0.0713,0.2034,0.1413,0.0356,0.0634,0.0414,0.1407,0.0414,0.275v1.435c0,0.1053-0.0055,0.1635-0.0352,0.2152-0.032,0.0556-0.0755,0.0804-0.1531,0.122l-0.0003,0.0001v0.0001c-0.0175,0.009-0.0375,0.0191-0.0594,0.029-0.0242,0.011-0.0462,0.0203-0.066,0.0279l-0.0004-0.0001c-0.0806,0.0312-0.1774,0.0605-0.2874,0.0865l1.382,1.615,0.0004,0.0004c0.0147,0.0148,0.0305,0.0293,0.0475,0.0432,0.0161,0.0131,0.0332,0.0257,0.0509,0.0373,0.0898,0.0588,0.1955,0.0925,0.3111,0.1026,0.0413,0.004,0.0837,0.0496,0.0845,0.0912l0.0001,0.01h0.317v-0.002c-0.0007-0.0465,0.0451-0.0934,0.0917-0.0939,0.2412-0.002,0.3998-0.0109,0.487-0.0678l0.0001-0.0004c0.0778-0.0507,0.1096-0.1583,0.1119-0.3653h-0.0001l-0.0001-3.259c0.0001-0.3264-0.2165-0.3294-0.5256-0.3336-0.0171-0.0003-0.0232-0.0003-0.0698-0.001-0.0454-0.0008-0.0908-0.0472-0.0908-0.0926l0.0001-0.1746c0-0.0464,0.0466-0.0927,0.0929-0.0927h1.308c0.0082-0.0408,0.0498-0.0779,0.0911-0.0781l1.904-0.007c0.0043-0.0008,0.0086-0.001,0.0128-0.001l1.95-0.0001c0.0463,0,0.0926,0.0466,0.0926,0.0929v0.2577c0,0.0463-0.0466,0.0926-0.0929,0.0926h-0.3067c-0.0283,0-0.0508,0.007-0.066,0.0179l0.0002,0.0002c-0.0079,0.006-0.0139,0.0128-0.0175,0.0202-0.004,0.008-0.0061,0.0183-0.0061,0.0302-0.0001,0.0282,0.0125,0.0626,0.0406,0.1001l0.0003-0.0001,0.9857,1.312,0.8618-1.196c0.0495-0.0687,0.0716-0.1279,0.0712-0.1746-0.0001-0.0174-0.0038-0.033-0.0107-0.0462-0.0066-0.0128-0.0168-0.0243-0.03-0.0338-0.0324-0.0234-0.082-0.0362-0.1448-0.0356l-0.3381,0.003c-0.0468,0.0004-0.0934-0.0463-0.0933-0.0931l0.0005-0.2509c0.0001-0.0462,0.0466-0.0923,0.0928-0.0922l1.591-0.0001c0.0463,0,0.0926,0.0466,0.0926,0.0929zm-9.982,1.808v0.0003m-0.7415-1.22-0.5739,0.004-0.0103,1.714,0.366,0.0008,0.0007,0.0001c0.0086,0.0001,0.015,0.0001,0.019,0.0001,0.1976-0.002,0.3893-0.071,0.5319-0.1724,0.132-0.0939,0.2191-0.2125,0.2227-0.3242,0.0001,0.007,0.0004,0.0229,0.0001-0.003-0.0001,0.0008-0.0001,0.001-0.0001,0.002v0.0005-0.0005c-0.0001-0.002-0.0001-0.004-0.0001-0.003h0.0002c-0.0001-0.002,0-0.003,0-0.005l-0.0001-0.002,0.0026-0.6198v-0.001h-0.0001c-0.0001-0.0438-0.0045-0.086-0.0129-0.1259-0.0084-0.0404-0.021-0.0798-0.0374-0.1172-0.083-0.1896-0.2651-0.3293-0.5083-0.3476zm-9.729,2.162-0.599-1.374-0.5842,1.378,1.183-0.004z" fill-rule="nonzero" filter="url(#filter5183)" stroke="#82ff82" stroke-miterlimit="4" stroke-dasharray="none" stroke-width="0.56444442" class="fil3" fill="#83ff83"/><path fill="#FFF" class="fil4" d="m31.71-16.48,0,0.0272,0.0126,0c0.0628,0,0.088,0.0271,0.088,0.0815v0.1496l-0.0126,0.0272h-0.3392l-0.0126-0.2176,0.0503-0.0407,0.0502-0.0272h-0.3392v0.0272c0.0628,0,0.1005,0.0136,0.1131,0.0407v0.5031l-0.0251,0.0407-3.536,0.0136c-0.057-0.0271-0.0912-0.0407-0.1026-0.0679l0.0114-0.5166,0.1938,0.0543c0.0114,0.0408,0.0228,0.068,0.0456,0.068,0.0114-0.068,0.0114-0.1223-0.0114-0.1767h-0.6043l-0.0114,0.1767c0.0228,0,0.0342,0,0.0456-0.0272l0.0228-0.068,0.1824-0.0271,0.0115,0.503-0.0229,0.0544-0.057,0.0407c-0.0228,0.0136-0.0228,0.0722-0.0228,0.0858h9.681l0.0342-0.0994-1.148-0.0271,0.0342-0.136h-0.0342c-0.0342,0.0816-0.0912,0.1224-0.171,0.136l-0.2167-0.0136-0.0114-0.1224v-0.1359h0.2167c0.0228,0,0.0342,0.0135,0.057,0.0407l0.0342,0.0544,0.0114-0.2311h-0.0342c-0.0228,0.0544-0.057,0.0952-0.114,0.0952l-0.0912-0.0272h-0.0799v-0.1088l0.0114-0.1223,0.2623,0.0136,0.1026,0.0951-0.0114-0.1495h-0.5587l-0.0228,0.0136,0.0456,0.0272,0.0342,0.0271,0.0114,0.5167-0.0228,0.0272-3.486,0.0135-0.0376-0.0271v-0.5167l0.113-0.0679h-0.3392zm-0.2638,0.4894,0-0.136,0.0252-0.0136,0.3392,0,0,0.1496c0,0.068-0.0252,0.1088-0.0503,0.1223l-0.2764-0.0135c-0.0251-0.0136-0.0377-0.0544-0.0377-0.1088z"/><path fill="#FFF" class="fil4" d="m26.66-12.09-0.7414-1.701-0.723,1.705,1.464-0.005zm9.592-2.346-0.6701,0.004-0.0114,1.899,0.4587,0.0009c0.446,0.006,0.8701-0.3044,0.8675-0.5987l0.0026-0.6203c0-0.3533-0.2557-0.6569-0.6473-0.6848zm10.63-0.2495,0-0.2464-1.591,0-0.0005,0.2509,0.3381-0.003c0.2564-0.002,0.372,0.1843,0.19,0.4368l-0.9255,1.284h0.422l0.82-1.138c0.365-0.5065,0.3485-0.5844,0.6438-0.5844h0.1033zm-28.56,0.3708c-0.0005-0.121-0.0632-0.2079-0.2241-0.2081l-0.4645-0.001-0.0006-0.1277,0.5893-0.006c-0.0129-0.1477-0.0065-0.2099-0.0408-0.2503-0.0441-0.052-0.1438-0.0592-0.3124-0.0709-0.173-0.01-0.3763-0.0195-0.5493-0.0292v-0.1383h1.392c0.0038,0.005,0.0076,0.0107,0.0114,0.016v0.4727l0.2646-0.002,1.513,3.214,1.528-3.209,0.3964-0.007,0.0028,0.5384,3.95,0.0159-0.0599-0.159h0.4781l0.75,1.878h-0.4113c0.1478,0.399,0.3595,0.8619,0.6323,1.484,0.0626,0.1304,0.1458,0.2059,0.2478,0.2496,0.1157,0.0496,0.221,0.0585,0.3828,0.0605h2.828c0.0341-0.1117,0.0341-0.1351,0.0341-0.3426v-3.464c0-0.0966-0.0262-0.1216-0.092-0.1206l-0.8956,0.0147c-0.3896-0.0159-0.5995,0.2601-0.6189,0.8499h-0.2097l-0.0018-1.109h1.874v-0.1879h2.272,0.0114l0.0038,1.023h-0.2084c-0.0404-0.3153-0.0556-0.7587-0.4623-0.7821l-0.752,0.002c-0.1937,0.0005-0.1953,0.0148-0.1953,0.2706v2.204h3.344l0.0114-0.0319,0.0106-2.204c0.0008-0.169-0.004-0.2186,0.1158-0.2186h0.8171c0.3187-0.005,0.5297,0.008,0.7322,0.0859,0.1688,0.0645,0.1849,0.0927,0.1849,0.3296v1.435c0,0.1774-0.014,0.1884-0.1392,0.2555-0.1186,0.0637-0.3059,0.1225-0.5415,0.1669l1.487,1.738c0.1251,0.1277,0.287,0.1967,0.4688,0.2127l0.002,0.1011h0.5022l-0.0016-0.0958c0.5159-0.005,0.6854-0.0406,0.6906-0.526v-3.259c0-0.4439-0.2868-0.4201-0.6862-0.4273v-0.1747h1.4v-0.0784l1.916-0.007v-0.0009h1.95v0.2576h-0.3066c-0.1667,0-0.245,0.1541-0.123,0.317l0.9893,1.317-0.244,0.3385,1.454,1.912c0.2519,0.3304,0.4121,0.5405,0.6743,0.5405h0.1864v0.2576h-2.118v-0.2576h0.3478c0.2397,0,0.2956-0.1483,0.1538-0.3343l-1.156-1.517-0.986,1.368c-0.2059,0.2858-0.0571,0.4825,0.2396,0.4825h0.2253v0.2576h-1.719v-0.2576h0.2379c0.3208,0,0.3736-0.1121,0.781-0.6776l1.067-1.483-0.4612-0.5491,0.4449,0.0001v-0.0001l-0.9506-1.284c-0.2358-0.3361-0.3372-0.455-0.7694-0.455v-0.0799h-1.231v0.1079c-0.4677,0.0109-0.6664-0.0319-0.6664,0.6304l0.0113,3.039c0.0015,0.5252,0.3126,0.541,0.6579,0.541v0.2943l-3.43-0.016-0.0009-0.1352-0.1101,0.0002-1.545-2.014h-0.3308v1.444c-0.0005,0.3996,0.3203,0.4277,0.5797,0.4278l0.0006,0.1536h-0.8001l-0.0113-1.709-0.0114-0.016-3.344-0.0144v0.6657c0,0.6202,0.4041,0.5549,0.6568,0.5655v0.1802l-1.13-0.0001,0.0044,0.6247h-1.048l-0.0101-0.1697c0.1109-0.0132,0.2628-0.007,0.3992-0.0402,0.1062-0.0261,0.203-0.0764,0.2639-0.179l-4.426-0.0159,0.0005-0.1165c0.1443-0.0178,0.3277-0.0341,0.4154-0.1603,0.0489-0.0705,0.066-0.169,0.015-0.3076l-0.3687-0.8661-1.646-0.0159c-0.1819,0.4788-0.2209,0.4854-0.2664,0.645-0.0803,0.2411-0.0835,0.3577-0.0396,0.4658,0.0642,0.1581,0.2698,0.198,0.3979,0.2132l0.0031,0.1424h-1.289v-0.1583c0.1569,0.005,0.263,0.0001,0.3438-0.0528,0.1611-0.1055,0.1824-0.2419,0.2918-0.5054l1.176-2.832-3.301-0.0102v3.586l-1.04,0.0159c-0.0114-0.0159-0.0227-0.0724,0-0.1362l0.4356-0.0294c0.1508-0.0147,0.2535-0.0634,0.2445-0.3205v-3.224l-1.615,3.411c-0.049,0.1034-0.0757,0.1538-0.0786,0.2768-0.0561,0.003-0.1021-0.005-0.1582-0.003-0.0001-0.1919-0.013-0.2522-0.0793-0.4086-0.4231-0.9969-0.9361-1.913-1.404-2.87l-0.0031,2.236-0.1137,0.1364v1.516h-0.9798l-0.0028-0.1337,0.4783-0.0737c0.1872-0.0478,0.201-0.1879,0.2207-0.4087l-0.0111-3.91z"/></g>
</svg>
