<svg viewBox="0 0 57 18" fill="none" xmlns="http://www.w3.org/2000/svg"><path d="M52.0476 17.499C50.9942 17.499 49.988 17.326 49.029 16.9801C48.0699 16.6343 47.2445 16.1233 46.5527 15.4472L47.6847 13.3955C48.4237 13.9929 49.1469 14.4332 49.8544 14.7162C50.5619 14.9992 51.2537 15.1407 51.9297 15.1407C52.5429 15.1407 53.0303 15.0306 53.3919 14.8105C53.7692 14.5904 53.9579 14.2602 53.9579 13.82C53.9579 13.364 53.7299 13.0575 53.274 12.9002C52.818 12.7273 52.1813 12.515 51.3637 12.2635C50.4518 11.9805 49.6893 11.6896 49.0761 11.3909C48.463 11.0922 47.9992 10.7306 47.6847 10.3061C47.386 9.88158 47.2366 9.33131 47.2366 8.65525C47.2366 7.44464 47.6926 6.47773 48.6045 5.75451C49.5164 5.03129 50.727 4.66968 52.2363 4.66968C53.1167 4.66968 53.95 4.81118 54.7361 5.09418C55.5222 5.36145 56.2376 5.80168 56.8822 6.41484L55.6087 8.41942C54.3981 7.47609 53.2268 7.00442 52.0948 7.00442C51.5917 7.00442 51.1436 7.09876 50.7506 7.28742C50.3732 7.47609 50.1846 7.80625 50.1846 8.27792C50.1846 8.71814 50.3654 9.03258 50.727 9.22125C51.1043 9.40992 51.6703 9.6143 52.425 9.83441C53.3997 10.1331 54.2252 10.424 54.9012 10.707C55.593 10.99 56.1118 11.3516 56.4577 11.7918C56.8193 12.232 57.0001 12.8295 57.0001 13.5842C57.0001 14.8105 56.552 15.7695 55.6559 16.4613C54.7597 17.1531 53.557 17.499 52.0476 17.499Z" fill="white"></path><path d="M43.2581 8.49531C44.0128 8.11797 44.8696 7.92931 45.8287 7.92931V5.05215C45.7344 5.03643 45.5221 5.02856 45.1919 5.02856C44.4373 5.07573 43.7141 5.34301 43.0223 5.8304C42.3462 6.31778 41.7959 6.98598 41.3714 7.83497V5.19365H38.4707V6.73835V7.5107V7.89622V7.89688V7.96975C38.9854 7.89622 40.0589 7.96975 40.2354 8.8521C40.456 9.95505 39.7942 10.9845 38.4707 11.1315V11.3725V17.5513H41.6309V10.0754C41.961 9.38361 42.5034 8.85692 43.2581 8.49531Z" fill="white"></path><path d="M16.2747 7.349V14.4476L19.4349 13.3863V7.349H22.029V4.91992H19.4349V0.910767H16.2747V4.91992H14.6475V7.349H16.2747Z" fill="white"></path><path d="M21.3922 17.2069C22.0211 17.0183 22.5478 16.8296 22.9723 16.6409L22.3355 14.1411L16.4121 15.4697C16.4121 15.6168 16.4856 15.8374 16.6991 16.2164C16.9978 16.6567 17.3909 16.979 17.8783 17.1834C18.3657 17.3877 18.9002 17.4899 19.4819 17.4899C20.1423 17.4899 20.779 17.3956 21.3922 17.2069Z" fill="white"></path><path d="M10.8352 4.36121C11.2911 4.61277 11.5898 4.81715 11.7313 4.97438L13.1699 2.33305C12.4467 1.84566 11.582 1.4133 10.5758 1.03597C9.56955 0.658637 8.48472 0.469971 7.32128 0.469971C6.18928 0.469971 5.15948 0.674359 4.23187 1.08314C3.30426 1.47619 2.56532 2.06577 2.01504 2.85188C1.48049 3.62227 1.21321 4.58132 1.21321 5.72904C1.21321 6.59376 1.38616 7.30912 1.73204 7.87512C2.07793 8.42539 2.59676 8.8892 3.28854 9.26653C3.99604 9.62814 4.88434 9.95831 5.95345 10.257C6.81817 10.5086 7.57283 10.7366 8.21744 10.9409C8.87777 11.1453 9.38874 11.3969 9.75035 11.6956C10.112 11.9943 10.2928 12.3874 10.2928 12.8748C10.2928 14.0225 9.39661 14.5963 7.60428 14.5963C6.97539 14.5963 6.35436 14.5177 5.7412 14.3605C5.12803 14.2033 4.56204 14.0146 4.0432 13.7945C3.52437 13.5587 3.08415 13.3307 2.72254 13.1106C2.36093 12.8748 2.10938 12.6861 1.96788 12.5446L0.529297 15.351C1.48835 16.0271 2.58104 16.5616 3.80737 16.9547C4.34548 17.097 5.52805 17.3671 5.95345 17.3082L12.9558 15.3965C13.5375 14.6575 13.7595 13.7395 13.7595 12.5446C13.7595 11.5227 13.5394 10.7051 13.0992 10.0919C12.6747 9.46306 12.0537 8.95995 11.2361 8.58262C10.4343 8.20528 9.48308 7.87512 8.38253 7.59212C7.53353 7.37201 6.82603 7.16762 6.26003 6.97895C5.69403 6.79029 5.26953 6.56232 4.98653 6.29504C4.70354 6.02776 4.56204 5.66615 4.56204 5.21021C4.56204 3.95243 5.45034 3.32355 7.22695 3.32355C7.903 3.32355 8.55547 3.4336 9.18436 3.65371C9.82897 3.8581 10.3792 4.09393 10.8352 4.36121Z" fill="white"></path><path d="M7.55687 17.5208C8.65743 17.5208 9.67937 17.3557 10.6227 17.0255C11.1069 16.8561 11.5414 16.6348 11.9261 16.3618L6.33789 17.4554L7.55687 17.5208Z" fill="white"></path><path d="M24.5717 11.5499C25.0276 10.9368 25.6565 10.4651 26.4583 10.1349C27.2602 9.80478 28.1799 9.6397 29.2176 9.6397C29.7364 9.6397 30.2631 9.68686 30.7977 9.7812C31.1748 9.80683 31.5285 9.87554 31.9461 9.88109L32.0082 9.86306L32.1891 9.47461C32.1891 8.6885 31.9533 8.0832 31.4816 7.6587C31.0256 7.2342 30.3417 7.02195 29.4298 7.02195C28.7538 7.02195 28.1092 7.13987 27.496 7.3757C26.8828 7.61153 26.2382 7.95742 25.5622 8.41337L24.5481 6.33804C25.3657 5.80348 26.1989 5.40257 27.0479 5.13529C27.9127 4.86801 28.8167 4.73438 29.76 4.73438C31.5209 4.73438 32.8887 5.1746 33.8635 6.05504C34.8673 6.86673 35.0143 7.3757 35.2349 8.92556L32.0082 9.86306L31.9996 9.88145C31.9817 9.88145 31.9638 9.88132 31.9461 9.88109L24.3525 12.0873L24.5717 11.5499Z" fill="white"></path><path d="M35.5151 14.498C35.405 14.3565 35.35 14.1128 35.35 13.7669L35.3264 11.7933L32.0739 12.4551L32.1898 13.2009C32.1898 13.5468 31.9933 13.9084 31.6003 14.2857C31.3015 14.5687 30.9242 14.7967 30.4683 14.9696C30.028 15.1426 29.5721 15.229 29.1004 15.229C28.3929 15.229 27.8505 15.0404 27.4732 14.663C27.0959 14.2857 26.9072 13.8612 26.9072 13.3895L23.9121 13.9257C23.9121 14.6646 24.0929 15.0561 24.4545 15.6535C24.8319 16.2353 25.3428 16.6991 25.9874 17.045C26.632 17.3751 27.371 17.5402 28.2043 17.5402C29.0375 17.5402 29.8472 17.3594 30.6333 16.9978C31.4352 16.6205 32.1112 16.078 32.6615 15.3705L32.7323 16.0073C32.7951 16.4161 32.9917 16.762 33.3218 17.045C33.652 17.328 34.1315 17.4695 34.7604 17.4695C34.9176 17.4695 35.1063 17.4537 35.3264 17.4223C35.5622 17.4066 35.8217 17.3673 36.1047 17.3044V14.7338C35.8217 14.7023 35.6251 14.6237 35.5151 14.498Z" fill="white"> </path></svg>