<svg width="20" height="21" viewBox="0 0 20 21" fill="none" xmlns="http://www.w3.org/2000/svg"><path d="M16.5958 11.2245C16.2725 10.7957 16.365 10.605 16.5958 10.2217C16.6 10.2173 19.2692 6.34458 19.5442 5.0312L19.5458 5.03033C19.6825 4.5517 19.5458 4.19995 18.885 4.19995H16.6983C16.1417 4.19995 15.885 4.50183 15.7475 4.83958C15.7475 4.83958 14.6342 7.63783 13.0592 9.4517C12.5508 9.97583 12.3158 10.1438 12.0383 10.1438C11.9017 10.1438 11.6892 9.97583 11.6892 9.4972V5.03033C11.6892 4.45633 11.5333 4.19995 11.0725 4.19995H7.63417C7.285 4.19995 7.0775 4.4677 7.0775 4.71708C7.0775 5.26133 7.865 5.38645 7.94667 6.9177V10.2401C7.94667 10.9681 7.82083 11.102 7.54167 11.102C6.79833 11.102 4.99417 8.29233 3.925 5.0767C3.70917 4.45283 3.49833 4.20083 2.9375 4.20083H0.75C0.125833 4.20083 0 4.5027 0 4.84045C0 5.4372 0.743333 8.40433 3.45667 12.3243C5.265 15.0001 7.81167 16.45 10.1283 16.45C11.5208 16.45 11.6908 16.128 11.6908 15.5741C11.6908 13.0173 11.565 12.7758 12.2625 12.7758C12.5858 12.7758 13.1425 12.9438 14.4425 14.2345C15.9283 15.7648 16.1725 16.45 17.0042 16.45H19.1908C19.8142 16.45 20.13 16.128 19.9483 15.4927C19.5325 14.1566 16.7225 11.4082 16.5958 11.2245Z" fill="#8083E6"></path></svg>